<?xml version="1.0" encoding="utf-8"?>
<!-- Generator: Adobe Illustrator 21.0.0, SVG Export Plug-In . SVG Version: 6.00 Build 0)  -->
<svg version="1.1" id="Layer_1" xmlns="http://www.w3.org/2000/svg" xmlns:xlink="http://www.w3.org/1999/xlink" x="0px" y="0px"
	 viewBox="0 0 304.1 128.2" style="enable-background:new 0 0 304.1 128.2;" xml:space="preserve">
<style type="text/css">
	.st0{enable-background:new    ;}
	.st1{fill:#36354E;}
</style>
<g class="st0">
	<path class="st1" d="M74.2,13.7c1.2,0,1.8,0.7,1.8,1.7c0,1.3-1.7,5.3-2.3,6.5c0.1,0,0.2,0,0.3,0c8.3,0,15.1-1.9,22-7
		c0.1-0.1,0.2-0.1,0.2-0.1c0.2,0,0.4,0.2,0.4,0.4c0,0.1,0,0.2-0.2,0.3c-7,5.3-14,7.2-22.4,7.2c-0.2,0-0.5,0-0.7,0
		c-1.8,4-29.9,52.6-29.9,68.5c0,3.3,0.8,7.3,4.1,7.3c4.7,0,11.4-8.5,10.7-13.3c0-0.3,0.2-0.4,0.4-0.4c0.2,0,0.4,0.1,0.4,0.3
		c0.7,4.8-5.7,14.2-12.1,14.2c-3.8,0-7.6-3.1-7.6-10.3c0-15.9,16.7-45.4,28.8-66.6c-5.1-0.4-10.7-1.3-16.9-2.1
		c-12.9,7.8-21.3,23-26.2,37.4C22.9,64.5,16.4,84,9.7,84c-4.2,0-6.9-4.1-6.9-10.5C2.8,64,9,50.5,16.5,52c0.5,0.1,0.4,0.9-0.2,0.8
		C9.7,51.5,4.5,65.7,4.5,74.7c0,4.5,1.2,8.5,5.1,8.5c6.2,0,12.9-20.1,14.8-25.8c4.8-14.2,13-29.2,25.7-37.3c-3.8-0.5-7-0.7-9.7-0.7
		c-7.6,0-10.7,1.8-14.3,4.9c-0.1,0.1-0.2,0.1-0.3,0.1c-0.2,0-0.4-0.2-0.4-0.4c0-0.1,0-0.2,0.1-0.3c3.8-3.2,7-5.1,14.8-5.1
		c2.9,0,6.5,0.3,10.8,0.8c5.4-3.2,13-5.7,19.6-5.7c0.8,0,1.5,0,2.2,0.1C73.3,13.8,73.8,13.7,74.2,13.7L74.2,13.7z M72.3,14.6
		c-6.6-0.4-14.3,2-19.8,5c5.9,0.8,11.2,1.6,16.2,2C70.2,19,71.8,16,72.3,14.6L72.3,14.6z"/>
	<path class="st1" d="M102.6,63.4c0.4-0.3,0.9,0.3,0.5,0.6c-1.6,2.2-4,5.2-6.7,5.2c-3.6,0-6.5-4.9-7.5-7.4c-2.4,5-6,11.2-9.4,15.4
		c-2.3,2.8-4.1,4.3-5.4,4.3c-1.8,0-5.5-3.5-5.5-10.2c0-14.7,18.9-56.4,30.3-56.4c2,0,3.1,1.4,3.1,3.4c0,4.6-5.4,12.3-5.7,12.7
		c-3,4.7-7.9,11.3-14.7,16.6C79.3,52.9,73,69,73,74.6c0,3.7,1.3,5.1,2.2,5.7c0.8-0.5,2-1.5,3.7-3.6C82.3,72.4,86,66,88.4,61
		c-2.5-7-0.7-16.7,3.5-16.7c1.4,0,1.9,1.3,1.9,3.1c0,2.8-1.8,8-3.2,10.9c0.8,4.9,3,10.1,6.2,10.1C98.9,68.3,101.1,65.5,102.6,63.4
		L102.6,63.4z M82.1,46c6.2-5.1,10.7-11.2,13.4-15.5c1.5-2.3,5.2-8.8,5.2-12c0-1.1-0.4-1.8-1.2-1.8C95,16.7,83.9,41.8,82.1,46z
		 M92,48.4c-2.1,0.3-1.9,6.3-1.6,8.4C91.7,53.9,93.5,48.2,92,48.4L92,48.4z"/>
	<path class="st1" d="M130.1,63.5c0.2,0.1,0.3,0.4,0.1,0.6c-1.9,3-5,4.5-6.8,4.5c-2.7,0-4.6-2.5-5.8-6.2c-3,5.6-7.6,12.9-11.8,12.9
		c-3.1,0-5.1-3.6-5.1-7.5c0-10.1,10.2-23.5,12.7-23.5c0.8,0,1.4,0.6,1.4,1.5c0,1.3-10,16.3-10,24.9c0,2.7,0.6,3.7,1.5,3.7
		c3.1,0,7.9-7.9,10.8-13.2c-2.9-10.7-0.5-29.3,6.9-29.3c2.3,0,2.7,3.2,2.7,4.5c0,4-2.6,12-6.4,20.1l-0.6,1.3
		c-0.1,0.2-0.2,0.5-0.4,0.7c0.4,5.2,1.8,9.1,4,9.1c1.9,0,4.5-1.9,6-4.2C129.7,63.5,130,63.4,130.1,63.5L130.1,63.5z M119.4,57.3
		L120,56c3.7-7.9,6.1-15.5,6.1-19.3c0-1.1-0.3-2-1.2-2.8C120.7,37.9,118.9,48.9,119.4,57.3z"/>
	<path class="st1" d="M152,50.4c1.1,0,1.7,0.7,1.7,1.7c0,0.3-0.1,0.6-0.2,1c-1.9,5.9-5.2,11.9-7.9,16.8c-2.5,4.5-4.7,8.4-4.7,10.4
		c0,1,0.4,2.1,1.7,2.1c4.6,0,16-14.1,18.8-17.8c0.3-0.4,1,0,0.6,0.5c-3.3,4.3-14.2,18.2-20.1,18.2c-2.8,0-4.3-2-4.3-5.1
		c0-3.7,2.7-10,5.7-15.7c-2.6,2.7-5.4,6.3-7.9,9.7c-3.1,4.1-4.8,5.7-6.3,5.7c-1.8,0-3.1-3.1-3.1-5.7c0-4.1,2.3-8.1,5.2-13.2
		c1.2-2.1,2.6-4.6,3.9-7.3c0.4-0.7,1.3-1,2.1-1c1.2,0,2.1,0.7,2.1,1.8c0,0.4-0.1,0.9-0.4,1.5c-2.1,4.4-3.9,7.7-5.4,10.4
		c-2.7,4.8-4.3,7.8-4.3,11.1c0,1.1,0.2,1.4,0.3,1.5c1.4-0.4,3.5-3,5.3-5.4c3.1-4.2,6.6-8.7,9.8-11.5c2-3.7,4-6.9,5.1-8.7
		C150.2,50.9,151.1,50.4,152,50.4L152,50.4z"/>
	<path class="st1" d="M183.6,13.7c0.7,0,1.5,0.6,1.5,2.4c0,2.4-0.4,5-1.2,7.8c2.8,0.5,5.4,0.8,7.7,0.8c2.3,0,4.1-0.4,5.5-1.1
		c0.5-0.2,0.8,0.5,0.4,0.7c-1.5,0.8-3.5,1.2-5.9,1.2c-2.4,0-5.1-0.4-7.9-0.8c-4,14.3-24.5,50.3-24.5,62.3c0,1.6,0.6,1.6,0.8,1.6
		c1.1,0,3.1-1.2,5.2-3.3c3.6-3.6,12.7-15.1,18.1-22.8c0.1-0.2,0.4-0.2,0.5-0.1c0.2,0.1,0.2,0.4,0.1,0.5
		c-4.5,6.4-13.8,18.6-18.2,22.9c-1.5,1.4-4.5,3.8-6.3,3.8c-2.2,0-3.9-2.8-3.9-6.4c0-11.4,15.1-36.3,23.6-59.4c-3.4-0.5-6.8-1-10.3-1
		c-11.2,0.1-15.1,3.4-17.3,6.7c-0.3,0.4-0.9,0-0.6-0.4c4-5.8,10.8-7,17.9-7c3.6,0,7.1,0.4,10.6,1c0.9-2.6,1.9-5.3,2.7-8.1
		C182.3,14.2,183,13.7,183.6,13.7L183.6,13.7z"/>
	<path class="st1" d="M246.2,13.5c3.2,0,4.7,2.3,4.7,4.6c0,4.4-5.6,13.6-12.1,24.2C230.5,55.8,221,71.2,221,80.5
		c0,0.8,0.2,3,0.8,3.1c7-5.5,34.2-34.7,42.8-44.1c3-5.2,5.9-9.4,8-11.8c0.6-0.7,1.6-1,2.5-1c1.1,0,2,0.5,2,1.7
		c0,3.1-23,39.8-23,49.4c0,3.1,0.9,4.4,2.2,4.4c2.8,0,6.5-5.4,8-7.9c0.1-0.1,0.2-0.2,0.3-0.2c0.2,0,0.4,0.2,0.4,0.4
		c0,0.1,0,0.1-0.1,0.2c-1.7,2.9-5.4,8.3-8.7,8.3c-2.3,0-5.7-3.4-5.7-8.4c0-8.1,8.4-24.9,12.4-31.9c-10.5,11.4-34.4,36.9-40.7,41.8
		c-0.1,0.1-0.3,0.2-0.5,0.2c-1.3,0-3.7-2-3.7-7.8c0-11.3,7.1-23.3,19.8-43.7c4.9-8,9.6-15.5,9.6-17.3c0-0.9-0.7-1.2-1.6-1.2
		c-9.5,0-24,22.4-27.6,31.1c-0.2,0.5-0.9,0.2-0.7-0.3C220.4,37.9,235.1,13.5,246.2,13.5L246.2,13.5z"/>
	<path class="st1" d="M296.3,34.5c1.5,0,2.6,0.8,2.6,2c0,1.7-4,5.2-8.9,9.4c-1.7,8.8-0.8,16.6-2.5,25c1.9-0.3,5.2-0.3,8.6-1.5
		c2.5-0.9,5.1-2.5,7.1-5.5c0.3-0.4,0.9,0,0.6,0.5c-1.9,2.7-4.4,4.6-7.5,5.7c-3.7,1.3-7,1.2-9.1,1.6c-1.2,5.6-3.5,11.9-9.3,11.9
		c-1.2,0-2.2-0.5-2.2-1.8c0-2,2.2-7.2,7.6-9.7c0.2-1.6,0.2-3.1,0.2-4.7c0-2.4-0.1-4.9-0.1-7.7c0-2.3,0.1-4.8,0.4-7.6
		c-3.5,4.4-8.3,10.7-11.1,14.4c-0.1,0.1-0.2,0.2-0.3,0.2c-0.2,0-0.4-0.2-0.4-0.4c0-0.1,0-0.2,0.1-0.2c3-3.9,8.5-11.1,11.9-15.4
		c0.3-2.1,0.7-4,1.1-5.8C287,39.2,290.4,34.5,296.3,34.5L296.3,34.5z M283.5,73c-5,2.5-6.7,7.2-6.7,8.8c0,0.7,0.5,1,1.2,1
		C281.6,82.8,283,76.6,283.5,73L283.5,73z M296.3,35.3c-3.2,0-5.3,6.2-6,9.3c1.2-1.1,7.9-6.5,7.9-8.1
		C298.1,35.8,297.4,35.3,296.3,35.3L296.3,35.3z"/>
</g>
</svg>
