<?xml version="1.0" encoding="utf-8"?>
<!-- Generator: Adobe Illustrator 21.0.2, SVG Export Plug-In . SVG Version: 6.00 Build 0)  -->
<svg version="1.1" id="Layer_1" xmlns="http://www.w3.org/2000/svg" xmlns:xlink="http://www.w3.org/1999/xlink" x="0px" y="0px"
	 viewBox="0 0 302.3 64.5" style="enable-background:new 0 0 302.3 64.5;" xml:space="preserve">
<style type="text/css">
	.st0{fill:#36354E;}
</style>
<g>
	<path class="st0" d="M54.2,15.5c1.8,0,2.4,0.9,2.4,2c0,5-13.9,18.7-13.9,27.3c0,2.6,0.4,3.5,1,3.5c1.7,0,8.8-9.4,9.9-10.7
		c1.6-3.9,3.6-7.5,4.8-8.9c0.3-0.4,0.7-0.5,1-0.5c0.5,0,0.9,0.4,0.9,0.8c0,0.1-0.1,0.4-0.1,0.5c-1.5,3.1-3,6.4-4.5,9.9
		c-1.9,4.8-2.9,8.4-2.9,10.7c0,1,0.2,2.3,1.1,2.3c1.8,0,6-5.2,10.2-12.6c2.8-4.9,7-13,7.2-18.6c0-0.1,0-0.1,0-0.1
		c0-2.4-1.6-4.4-2.4-4.4c-0.3,0-0.5,0.2-0.7,0.6c0,0.1-0.1,0.1-0.1,0.1c-0.1,0-0.3-0.3-0.3-0.5c0-0.1,0-0.1,0.1-0.1
		c0.3-0.4,0.7-0.7,1.1-0.7c1.1,0,3.1,2.5,3.1,5.1c-0.1,5.1-5,14.6-7.5,19C63,42.7,56.9,53,53.9,53c-2,0-2.8-3.4-2.8-5.5
		c0-2.5,0.8-5.5,1.9-8.4c-3.8,4.8-7.7,9.7-9.5,9.7c-1.7,0-2.9-2.6-2.9-5.7c0-8.7,14-22.7,14-26.6c0-0.4-0.1-0.5-0.5-0.5
		c-2.1,0-7.8,3.9-10.2,9.4c-0.1,0.2-0.5,0.1-0.4-0.1C46,19.8,51.8,15.5,54.2,15.5L54.2,15.5z"/>
	<path class="st0" d="M89.9,8.7c1.8,0,2.5,1.6,2.5,3.4c0,5-9.9,13.9-13.9,17.2c-1.6,4.4-3.1,8.9-4.5,13c2.2-3.6,8.7-12.4,12.4-12.9
		l0,0c0.4,0,0.9,0.1,0.9,1.1c0,3.9-7.2,13.5-7.2,17.8c0,1,0.4,1.4,0.9,1.4c2.3,0,8.3-8.2,9-9.3c0.1-0.1,0.1-0.1,0.1-0.1
		c0.1,0,0.3,0.1,0.1,0.3c-0.7,1.2-6.6,9.6-9.4,9.6c-1.5,0-2.6-1.7-2.6-2.9c0-1.8,2.1-8.3,7.2-17.1c-3.4,1.7-9.2,8.7-12.1,14.2
		c-0.1,0.2-0.1,0.5-0.2,0.7c-0.1,0.4-0.7,0.7-1.2,0.7s-1.1-0.3-1.2-1v-0.1v-0.1C73,36.5,81.3,8.7,89.9,8.7L89.9,8.7z M90.3,9.3
		c-4.5,0-9.6,14.3-11.5,19.2C82.5,25.3,92,16.8,92,12C92,10.8,91.3,9.3,90.3,9.3L90.3,9.3z"/>
	<path class="st0" d="M99.3,28c1.3,0,1.6,1.8,1.6,3.2c0,2.9-1.1,6.7-3.1,8.1c-0.2,0.1-0.4-0.1-0.2-0.4c2-1.4,2.9-5.3,2.9-7.7
		c0-1.1-0.2-2.2-0.7-2.3c-3.4,0.1-11,17-11,21.9c0,0.9,0.2,1.1,0.3,1.1c0.7,0,2.9-2.8,6.2-6.9c2.2-2.8,4.7-5.8,6.6-7.8
		c0.5-1,1-1.9,1.5-2.6l0,0c0.4-0.4,0.9-0.7,1.3-0.7c0.4,0,0.8,0.3,0.8,0.8c0,0.2-0.1,0.4-0.1,0.7c-0.2,0.6-1.1,2.6-2.2,5.3
		c-2,4.6-5.3,12.3-5.3,13.1c0,0.1,0,0.1,0.1,0.1c0.2,0,0.7-0.2,2-1.2c2.6-2,7.2-6.6,9.6-10.1c0.1-0.1,0.2-0.1,0.3-0.1
		c0.1,0.1,0.1,0.2,0.1,0.3c-2.5,3.5-7.2,8.2-9.7,10.2c-1.5,1.1-2,1.2-2.2,1.2c-0.4,0-1.7-0.7-1.7-2.5c0-1,0.9-3.9,2.3-7.2
		c0.8-2,1.7-4,2.6-5.8c-1.7,1.9-3.7,4.4-5.5,6.7c-5.1,6.4-5.9,7.3-6.7,7.2c-1.5-0.2-2.3-2.6-2.3-4.8C86.9,42.1,94.4,28,99.3,28
		L99.3,28z"/>
	<path class="st0" d="M121.4,15.5c0.4,0,0.8,0.4,0.8,1.2c0,1.2-0.2,2.6-0.6,4.1c1.5,0.2,2.9,0.4,4.1,0.4s2.2-0.2,2.9-0.6
		c0.2-0.1,0.4,0.2,0.2,0.4c-0.8,0.4-1.8,0.7-3.1,0.7c-1.2,0-2.7-0.2-4.2-0.4c-2.1,7.5-12.9,26.6-12.9,32.9c0,0.9,0.3,0.9,0.4,0.9
		c0.6,0,1.6-0.7,2.7-1.8c1.9-1.9,6.7-8,9.5-12c0.1-0.1,0.2-0.1,0.3-0.1c0.1,0.1,0.1,0.2,0.1,0.3c-2.3,3.4-7.2,9.8-9.6,12.1
		c-0.8,0.7-2.4,2-3.3,2c-1.2,0-2-1.5-2-3.4c0-6,8-19.1,12.4-31.4c-1.8-0.3-3.6-0.5-5.5-0.5c-5.9,0-8,1.8-9.1,3.5
		c-0.1,0.2-0.5,0-0.4-0.2c2.1-3.1,5.7-3.7,9.5-3.7c1.9,0,3.7,0.2,5.6,0.5c0.5-1.4,1-2.8,1.4-4.2C120.8,15.8,121.1,15.5,121.4,15.5
		L121.4,15.5z"/>
	<path class="st0" d="M149.2,15.5c0.4,0,0.8,0.4,0.8,1.2c0,1.2-0.2,2.6-0.6,4.1c1.5,0.2,2.9,0.4,4.1,0.4s2.2-0.2,2.9-0.6
		c0.2-0.1,0.4,0.2,0.2,0.4c-0.8,0.4-1.8,0.7-3.1,0.7c-1.2,0-2.7-0.2-4.2-0.4c-2.1,7.5-12.9,26.6-12.9,32.9c0,0.9,0.3,0.9,0.4,0.9
		c0.6,0,1.6-0.7,2.7-1.8c1.9-1.9,6.7-8,9.5-12c0.1-0.1,0.2-0.1,0.3-0.1c0.1,0.1,0.1,0.2,0.1,0.3c-2.3,3.4-7.2,9.8-9.6,12.1
		c-0.8,0.7-2.4,2-3.3,2c-1.2,0-2-1.5-2-3.4c0-6,8-19.1,12.4-31.4c-1.8-0.3-3.6-0.5-5.5-0.5c-5.9,0-8,1.8-9.1,3.5
		c-0.1,0.2-0.5,0-0.4-0.2c2.1-3.1,5.7-3.7,9.5-3.7c1.9,0,3.7,0.2,5.6,0.5c0.5-1.4,1-2.8,1.4-4.2C148.5,15.8,148.8,15.5,149.2,15.5
		L149.2,15.5z"/>
	<path class="st0" d="M163.2,41.9c0.1,0.1,0.1,0.2,0.1,0.4c-1,1.6-2.6,2.4-3.6,2.4c-1.4,0-2.4-1.3-3.1-3.2c-1.6,2.9-4,6.8-6.2,6.8
		c-1.6,0-2.6-1.9-2.6-3.9c0-5.3,5.4-12.4,6.7-12.4c0.4,0,0.7,0.3,0.7,0.8c0,0.7-5.3,8.6-5.3,13.2c0,1.4,0.3,2,0.8,2
		c1.6,0,4.2-4.2,5.7-6.9c-1.5-5.6-0.3-15.4,3.7-15.4c1.2,0,1.5,1.7,1.5,2.4c0,2.1-1.4,6.4-3.4,10.6l-0.4,0.7
		c-0.1,0.1-0.1,0.2-0.2,0.4c0.2,2.8,1,4.8,2.1,4.8c1,0,2.4-1,3.1-2.2C162.9,41.8,163.1,41.8,163.2,41.9L163.2,41.9z M157.5,38.5
		l0.3-0.7c1.9-4.2,3.2-8.2,3.2-10.2c0-0.6-0.1-1-0.7-1.5C158.2,28.3,157.2,34.1,157.5,38.5z"/>
	<path class="st0" d="M195.2,15.5c1.8,0,2.4,0.9,2.4,2c0,5-13.9,18.7-13.9,27.3c0,2.6,0.4,3.5,1,3.5c1.7,0,8.8-9.4,9.9-10.7
		c1.6-3.9,3.6-7.5,4.8-8.9c0.3-0.4,0.7-0.5,1-0.5c0.5,0,0.9,0.4,0.9,0.8c0,0.1-0.1,0.4-0.1,0.5c-1.5,3.1-3,6.4-4.5,9.9
		c-1.9,4.8-2.9,8.4-2.9,10.7c0,1,0.2,2.3,1.1,2.3c1.8,0,6-5.2,10.2-12.6c2.8-4.9,7-13,7.2-18.6c0-0.1,0-0.1,0-0.1
		c0-2.4-1.6-4.4-2.4-4.4c-0.3,0-0.5,0.2-0.7,0.6c0,0.1-0.1,0.1-0.1,0.1c-0.1,0-0.3-0.3-0.3-0.5c0-0.1,0-0.1,0.1-0.1
		c0.3-0.4,0.7-0.7,1.1-0.7c1.1,0,3.1,2.5,3.1,5.1c0,5-4.9,14.5-7.4,19C204.2,42.7,198,53,195,53c-2,0-2.8-3.4-2.8-5.5
		c0-2.5,0.8-5.5,1.9-8.4c-3.7,4.8-7.7,9.7-9.4,9.7c-1.7,0-2.9-2.6-2.9-5.7c0-8.7,14-22.7,14-26.6c0-0.4-0.1-0.5-0.5-0.5
		c-2.1,0-7.8,3.9-10.2,9.4c-0.1,0.2-0.5,0.1-0.4-0.1C187.1,19.8,192.9,15.5,195.2,15.5L195.2,15.5z"/>
	<path class="st0" d="M220.7,33.7c0,1.7-1.8,4.8-4.7,6.1c-1,2.6-1.9,5.6-1.9,7.6c0,1.1,0.3,2.7,1.4,2.7c3.7,0,9.4-8.6,11.3-11.2
		c0.1-0.2,0.5,0.1,0.4,0.2c-2.3,3-7.7,11.3-11.7,11.3c-1.3,0-3.7-1.2-3.7-4.5c0-6.4,5.2-13.5,7.8-13.5
		C220,32.6,220.7,32.7,220.7,33.7z M216.4,38.7c-0.1,0.1-0.1,0.4-0.2,0.5c2.3-1.1,3.8-3.7,3.8-5.3c0-0.4-0.2-0.7-0.3-0.7
		C219.2,33.4,218,35.1,216.4,38.7z"/>
	<path class="st0" d="M235,28c1.3,0,1.6,1.8,1.6,3.2c0,2.9-1.1,6.7-3.1,8.1c-0.2,0.1-0.4-0.1-0.2-0.4c2-1.4,2.9-5.3,2.9-7.7
		c0-1.1-0.2-2.2-0.7-2.3c-3.4,0.1-11,17-11,21.9c0,0.9,0.2,1.1,0.3,1.1c0.7,0,2.9-2.8,6.2-6.9c2.2-2.8,4.7-5.8,6.6-7.8
		c0.5-1,1-1.9,1.5-2.6l0,0c0.4-0.4,0.9-0.7,1.3-0.7c0.4,0,0.8,0.3,0.8,0.8c0,0.2-0.1,0.4-0.1,0.7c-0.2,0.6-1.1,2.6-2.2,5.3
		c-2,4.6-5.3,12.3-5.3,13.1c0,0.1,0,0.1,0.1,0.1c0.2,0,0.7-0.2,2-1.2c2.6-2,7.2-6.6,9.6-10.1c0.1-0.1,0.2-0.1,0.3-0.1
		c0.1,0.1,0.1,0.2,0.1,0.3c-2.5,3.5-7.2,8.2-9.7,10.2c-1.5,1.1-2,1.2-2.2,1.2c-0.4,0-1.7-0.7-1.7-2.5c0-1,0.9-3.9,2.3-7.2
		c0.8-2,1.7-4,2.6-5.8c-1.7,1.9-3.7,4.4-5.5,6.7c-5.1,6.4-5.9,7.3-6.7,7.2c-1.5-0.2-2.3-2.6-2.3-4.8C222.6,42.1,230.1,28,235,28
		L235,28z"/>
	<path class="st0" d="M255,22.3c0.7,0,1.2,0.5,1.2,1.5c0,2.4-2.9,7.7-4.4,10.4c0.3,1.5,1,2.6,2.3,3.4c0.1-0.1,0.2-0.1,0.3-0.1
		c0.4,0,0.8,0.4,0.8,0.8c0,0.2-0.1,0.4-0.2,0.6c-1.5,1.9-6.8,9.9-6.8,14.4c0,1.5,0.4,2,1,2c0.3,0,0.6-0.1,0.9-0.4
		c2.4-2,9.4-10.1,11.2-12.6c0.1-0.1,0.1-0.1,0.1-0.1c0.1,0,0.2,0.1,0.2,0.2c0,0.1,0,0.1-0.1,0.1c-1.8,2.6-8.8,10.7-11.3,12.7
		c-0.3,0.2-0.7,0.5-1.2,0.5c-1.3,0-3.1-1.2-3.1-3.4c0-3.9,4.7-12.4,7.2-14.3c-1-0.4-1.9-1-2.6-2c-1.6,2.4-3.1,4-4.8,6.5
		c-0.1,0.1-0.1,0.1-0.1,0.1c-0.1,0-0.2-0.1-0.2-0.2c0-0.1,0-0.1,0.1-0.1c1.8-2.6,3.1-4.2,4.8-6.7c-0.7-1.1-1.1-2.5-1.1-4.1
		C249.3,26.7,252.6,22.3,255,22.3L255,22.3z M255.4,23.2c-1.5,0-3.7,5.8-3.7,9.4c0,0.3,0,0.6,0.1,0.8c1.3-2.3,4.1-7.5,4.1-9.7
		C255.8,23.4,255.7,23.2,255.4,23.2L255.4,23.2z"/>
</g>
</svg>
