<?xml version="1.0" encoding="utf-8"?>
<!-- Generator: Adobe Illustrator 21.0.0, SVG Export Plug-In . SVG Version: 6.00 Build 0)  -->
<svg version="1.1" id="Layer_1" xmlns="http://www.w3.org/2000/svg" xmlns:xlink="http://www.w3.org/1999/xlink" x="0px" y="0px"
	 viewBox="0 0 495.7 128.2" style="enable-background:new 0 0 495.7 128.2;" xml:space="preserve">
<style type="text/css">
	.st0{enable-background:new    ;}
	.st1{fill:#FFFFFF;}
</style>
<g class="st0">
	
		<image style="overflow:visible;opacity:0.37;enable-background:new    ;" width="508" height="142" xlink:href="4C67006956EE836D.png"  transform="matrix(1 0 0 1 1 0.2)">
	</image>
	<g>
		<g class="st0">
			<path class="st1" d="M70.2,4.8c0.9,0,1.3,0.4,1.7,1.1C56.7,21.4,52.3,52.1,37.5,72.4C30.9,81.6,23.9,84.3,19,84.3
				c-4.4,0-7.5-2.2-9.5-5.5c-1.1,4.3-1.7,8.7-1.8,13.6c0,0.2-0.2,0.4-0.4,0.4c-0.2,0-0.4-0.2-0.4-0.4c0.1-5,0.7-9.8,2-14.6
				c-1.4-2.8-2-6.1-2-9.4c0-8.2,4.3-15.1,7.1-16.3c0.5-0.2,0.8,0.5,0.3,0.7c-2.3,1-6.6,7.6-6.6,15.6c0,3,0.6,5.9,1.6,8.2
				c4.7-16.3,15.8-29.3,26-46c-2-1.5-2.5-4.3-2.5-6.8c0-10.2,4.9-16,8.1-16c1.5,0,2.7,1.4,2.7,4.2c0,1.6-0.4,3.4-0.7,4.5
				c-1.4,5.4-4.2,9.9-5.3,11.8c0.3,0.7,0.5,1.5,1.3,1.5c1.5,0,5.1-2.3,14.8-11.2c2.6-2.4,5-4.5,6.8-5.9C64.2,7.5,67.4,4.8,70.2,4.8
				L70.2,4.8z M59.2,15c-1.5,1.2-3.1,2.8-4.9,4.3c-2.9,2.6-11.9,12-16.8,12c-0.5,0-1-0.1-1.4-0.3C25.6,48.1,14.3,61.2,9.8,77.7
				c2.1,3.9,5.3,5.8,9.2,5.8c7.8,0,12.4-7.1,15.8-14.1C45.1,48.4,48.8,31.5,59.2,15L59.2,15z M37.1,25.3c0,0.8,0.1,1.5,0.2,2.1
				c2.4-4.1,5.6-10.6,5.6-15.4c0-1.7-0.3-2.4-0.7-2.4C40.6,9.6,37.1,19.5,37.1,25.3z"/>
			<path class="st1" d="M77.1,37.4c2.5,0,3,3.5,3,6c0,5.4-2,12.6-5.8,15.3c-0.4,0.3-0.9-0.3-0.5-0.6c3.7-2.6,5.5-9.9,5.5-14.7
				c0-2-0.4-4.1-1.2-4.4C71.7,39,57.3,71,57.3,80.5c0,1.6,0.4,2.1,0.6,2.1c1.2,0,5.4-5.2,11.7-13.1c4.2-5.3,8.9-11.1,12.4-14.8
				c1-1.9,2-3.6,2.9-5l0,0c0.6-0.8,1.6-1.4,2.5-1.4c0.9,0,1.5,0.6,1.5,1.5c0,0.3-0.1,0.7-0.2,1.2c-0.4,1-2,5-4.2,9.9
				c-3.7,8.7-10,23.2-10,24.8c0,0.2,0,0.3,0.2,0.3c0.4,0,1.4-0.4,3.7-2.2c4.9-3.7,13.6-12.5,18.3-19.1c0.1-0.2,0.4-0.2,0.5-0.1
				s0.2,0.4,0.1,0.5C92.7,71.7,83.9,80.6,79,84.4c-2.7,2.1-3.7,2.3-4.2,2.3c-0.8,0-3.2-1.3-3.2-4.7c0-1.8,1.7-7.3,4.3-13.7
				c1.6-3.9,3.2-7.7,4.9-11c-3.2,3.6-7,8.3-10.4,12.7c-9.7,12.1-11.2,13.8-12.5,13.6c-2.8-0.5-4.3-4.9-4.3-9.2
				C53.5,64,67.8,37.4,77.1,37.4L77.1,37.4z"/>
			<path class="st1" d="M118.8,40.3c5,0-1.6,14.1-3.9,18.6c-0.1,2,0.5,11.2,4,11.2c2.5,0,6.1-3.6,7.6-5.7c0.3-0.4,0.9,0,0.6,0.5
				c-1.4,1.9-5.3,6.1-8.3,6.1c-3.4,0-5.2-4.9-6.1-8.1c-7,12.3-13.5,18.2-13.5,18.2s-4.7-0.7-4.7-8.1c0-6.9,3.8-14.9,8.2-24.1
				c0.7-1.4,1.4-2.9,2.1-4.4c0.3-0.6,1.2-0.9,1.9-0.9c1.2,0,1.9,0.7,1.9,1.8c0,0.4-0.1,0.7-0.2,1.2c-9.2,24.3-10,27.8-10,31.1
				c0,1,0.1,2.2,0.8,2.6c2.9-3.1,7.8-8.6,13.3-18.4c-0.7-2.5-0.9-5-0.8-7.5C112,46.2,116.1,40.3,118.8,40.3L118.8,40.3z M119.2,43
				c-1,0-3.2,5.7-4,13.7C116.1,54.7,121.1,43,119.2,43L119.2,43z"/>
			<path class="st1" d="M135.9,43.8c0.9,0,1.6,0.7,1.6,1.9c0,2.7-10.1,23.3-10.1,30c0,1.7,0.6,2.5,1.7,2.5
				c3.9,0,13.8-12.2,16.8-16.7c0.3-0.4,0.9,0,0.7,0.4c-3.1,4.5-12.8,17.1-18,17.1c-3.1,0-4.6-2.9-4.6-5.9c0-4.2,3.7-17.7,9.8-28
				C134.3,44.3,135.1,43.8,135.9,43.8L135.9,43.8z M143,27.9c0.8,0,1.2,0.5,1.2,1.3c0,2-2.3,3-3.2,3c-0.8,0-1.7-0.8-1.7-1.6
				C139.2,29,142,27.9,143,27.9L143,27.9z"/>
			<path class="st1" d="M169.4,47.2c1.1,0,1.8,0.8,1.8,2c0,6.3-13.8,19.7-13.8,27.7c0,1.9,0.7,3,2.3,3c3.7,0,11-6.2,17.3-15.4
				c0.3-0.4,0.9,0,0.6,0.4c-4.3,6.2-12.5,15.8-18.3,15.8c-3.3,0-4.9-3-4.9-7c0-9.2,11.6-20.5,12.2-24.1c-5,4-17.8,16.2-22.5,20.6
				c-0.7,1.3-1.4,2.6-2.1,3.8c-1.8,0.6-3.6,0.2-4-1.6c2.1-4.8,6.1-13.3,9.3-17.5c1.4-1.9,2.6-2.8,3.5-2.8c1.2,0,2.3,1.1,1.3,3.4
				c-0.8,2-4,7.7-6.7,12.5C157.9,56.2,167.1,47.2,169.4,47.2L169.4,47.2z"/>
			<path class="st1" d="M270.2,3.8c2,0,2.7,2.1,2.7,4.6c0,2.5-0.6,5.4-1,7.3c-1.9,8.6-6,14.2-8.7,17.9c-0.1,0.1-0.2,0.2-0.3,0.2
				c-0.2,0-0.4-0.2-0.4-0.4c0-0.1,0-0.2,0.1-0.2c2.9-4.2,6.7-9.5,8.5-17.6c0.3-1.5,1-4.5,1-6.9c0-1.1-0.1-2.1-0.5-2.7
				c-7.7,5-17.5,18.6-21.7,29.8c1.1,2.7,1.6,5.4,1.6,7.8c0,3.7-1.1,6.5-3,6.5c-2.3,0-4.9-4.5-4.9-10.6c0-2.4,0.4-5.1,1.4-7.8
				c-1.1-1.3-2.3-1.9-3.6-1.9c-9.1,0-21.6,30.3-21.6,43.1c0,10.7,5.5,15.1,9.6,15.1c3.4,0,7.4-2.6,11.7-9.4
				c3.4-5.4,5.8-11.8,5.9-15.9c0-0.2,0.2-0.4,0.4-0.4c0.2,0,0.4,0.2,0.4,0.4c-0.1,4.3-2.5,10.9-6,16.3c-4.4,7-9.1,10.1-13.2,10.1
				c-6.7,0-13.7-8.4-13.7-21.7c0-19.2,14.1-39.6,25.3-39.6c2,0,3.9,0.6,5.6,2.1C250.9,17.5,264.3,3.7,270.2,3.8L270.2,3.8z
				 M280.3,40c0.9,1.7,0.8,3.8-0.2,6.1c-4.7,10.4-15.3,11.7-29.8,14.8c-12,2.5-17.8,3.8-21.1,11.3c-0.2,0.5-0.9,0.2-0.7-0.3
				c3.5-7.9,9.6-9.2,21.7-11.8c13.9-2.9,24.7-4.2,29.3-14.3c0.9-2.1,1-4,0.2-5.5C279.4,39.9,280.1,39.5,280.3,40L280.3,40z
				 M247.9,45.5c0,2.1,0.4,3.3,0.8,3.3c0.5,0,1.9-2.1,1.9-5.8c0-1.7-0.3-3.8-1.1-6.1C248.3,40.3,247.9,43.3,247.9,45.5z"/>
			<path class="st1" d="M350.2,10.8c2.8,0,3.8,2.2,3.8,3.4c0,2.9-4.1,7-9.7,12.1c-3.7,17.4-9.1,58.4-30,58.4
				c-8,0-11.7-6.8-12.3-14.8c-2.3,4.9-5.3,12.8-5.3,18.2c0,0.5-0.8,0.6-0.8-0.1c0-4,1.9-11.3,6-19.8c0-0.3,0-0.6,0-0.8
				c0-11.1,5.3-23.5,12.9-23.5c0.8,0,0.6,0.8,0.1,0.8c-7.6,0-12,12.6-12.2,21.9c1.2-2.4,2.7-5,4.3-7.5c7.2-11.4,21.8-20.6,31.1-28.3
				C340.1,22.4,342.9,10.8,350.2,10.8L350.2,10.8z M307.7,59.5c-1.9,3-3.6,6-4.9,8.8c0.2,7.2,3,15,10.2,15c18,0,20.9-33.9,24.8-51.4
				C328.6,39.6,314.6,48.6,307.7,59.5z M351.1,12.1c-2.9,0-4.4,3.7-6.5,12.8c4.9-4.5,8.6-8.3,8.6-10.7
				C353.2,13.1,352.3,12.1,351.1,12.1L351.1,12.1z"/>
			<path class="st1" d="M376.6,63.5c0.2,0.1,0.3,0.4,0.1,0.6c-1.9,3-5,4.5-6.8,4.5c-2.7,0-4.6-2.5-5.8-6.2
				c-3,5.6-7.6,12.9-11.8,12.9c-3.1,0-5-3.6-5-7.5c0-10.1,10.2-23.5,12.7-23.5c0.8,0,1.4,0.6,1.4,1.5c0,1.3-10,16.3-10,24.9
				c0,2.7,0.6,3.7,1.5,3.7c3.1,0,7.9-7.9,10.8-13.2c-2.9-10.7-0.5-29.3,6.9-29.3c2.3,0,2.7,3.2,2.7,4.5c0,4-2.6,12-6.4,20.1
				l-0.6,1.3c-0.1,0.2-0.2,0.5-0.4,0.7c0.4,5.2,1.8,9.1,4,9.1c1.9,0,4.5-1.9,6-4.2C376.2,63.5,376.5,63.4,376.6,63.5L376.6,63.5z
				 M365.9,57.3l0.6-1.3c3.7-7.9,6.1-15.5,6.1-19.3c0-1.1-0.3-2-1.2-2.8C367.2,37.9,365.5,48.9,365.9,57.3z"/>
			<path class="st1" d="M385.4,46.2c0.9,0,1.6,0.5,1.6,1.2c0,0.6-6.5,16.9-6.6,17.1c2.8-2.8,8.9-8,12.8-8c1.6,0,2.7,1,2.7,3.6
				c0,3.6-2.3,8.1-5.3,12c1.1,1.4,2.5,2.4,4.3,2.4c2.6,0,7.2-4.7,10.9-10.1c0.3-0.4,0.9,0,0.6,0.4c-3.9,5.6-8.6,10.4-11.5,10.4
				c-2,0-3.5-1-4.8-2.5c-2.2,2.7-7.6,8.3-10.1,8.3c-1.1,0-2-1-2-2.1c0-1.6,5.2-7.3,9.6-9c0.1-0.3,0.2-0.5,0.3-0.8
				c2.1-5.1,3.5-9.9,3.5-11.3c-3.8,0.8-9.2,5.8-11.9,8.6c-4.6,11.2-12,28.7-18,39.3c-1.6,2.8-5.2,9.2-8.3,9.2
				c-1.5,0-2.4-1.5-2.4-3.9c0-7.9,12.9-35.3,22.5-42.4c3.7-9.2,7.2-17.3,9.7-21.1C383.7,46.5,384.7,46.2,385.4,46.2L385.4,46.2z
				 M372.8,70c-9.3,8-21.1,33.5-21.1,40.9c0,1.1,0.3,2.9,1.2,2.9c1.8,0,5-7.2,6.4-10.3C363.3,94.6,368.3,81.3,372.8,70L372.8,70z
				 M387.2,70.9c-4.3,2.1-8.4,7.1-8.4,8c0,0.6,0.5,1.3,1.2,1.3C382.9,80.1,386,73.5,387.2,70.9L387.2,70.9z"/>
			<path class="st1" d="M439.9,0.7c3.3,0,4.7,3.1,4.7,6.4c0,9.6-18.9,26.4-26.2,32.6c-3,8.3-5.9,16.9-8.4,24.6
				c4.1-6.7,16.4-23.5,23.6-24.5h0c0.6,0,1.7,0.3,1.7,2.1c0,7.5-13.6,25.6-13.6,33.6c0,1.9,0.6,2.7,1.6,2.7c4.4,0,15.6-15.5,17-17.6
				c0.1-0.1,0.2-0.2,0.3-0.2c0.3,0,0.5,0.3,0.3,0.6c-1.5,2.3-12.5,18.1-17.8,18.1c-3,0-5-3.2-5-5.5c0-3.4,4-15.7,13.6-32.3
				c-6.5,3.2-17.4,16.5-23,26.9c-0.2,0.5-0.3,0.9-0.5,1.4c-0.3,0.8-1.2,1.4-2.2,1.4c-1,0-2.1-0.5-2.3-1.8l0-0.1l0-0.1
				C407.8,53.5,423.7,0.7,439.9,0.7L439.9,0.7z M440.6,1.9c-8.4,0-18.3,27.1-21.7,36.4c6.9-5.9,24.9-22.1,24.9-31.1
				C443.9,4.8,442.7,1.9,440.6,1.9L440.6,1.9z"/>
			<path class="st1" d="M447,43.8c0.9,0,1.6,0.7,1.6,1.9c0,2.7-10.1,23.3-10.1,30c0,1.7,0.6,2.5,1.7,2.5c3.9,0,13.8-12.2,16.8-16.7
				c0.3-0.4,0.9,0,0.7,0.4c-3.1,4.5-12.8,17.1-18,17.1c-3.1,0-4.6-2.9-4.6-5.9c0-4.2,3.7-17.7,9.8-28
				C445.4,44.3,446.2,43.8,447,43.8L447,43.8z M454,27.9c0.8,0,1.2,0.5,1.2,1.3c0,2-2.3,3-3.2,3c-0.8,0-1.7-0.8-1.7-1.6
				C450.3,29,453.1,27.9,454,27.9L454,27.9z"/>
			<path class="st1" d="M475.2,37.4c2.5,0,3,3.5,3,6c0,5.4-2,12.6-5.8,15.3c-0.4,0.3-0.9-0.3-0.5-0.6c3.7-2.6,5.5-9.9,5.5-14.7
				c0-2-0.4-4.1-1.2-4.4c-6.5,0.1-20.8,32.1-20.8,41.5c0,1.6,0.4,2.1,0.6,2.1c1.2,0,5.4-5.2,11.7-13.1c4.2-5.3,8.9-11.1,12.4-14.8
				c1-1.9,2-3.6,2.9-5l0,0c0.6-0.8,1.6-1.4,2.5-1.4c0.9,0,1.5,0.6,1.5,1.5c0,0.3-0.1,0.7-0.2,1.2c-0.4,1-2,5-4.2,9.9
				c-3.7,8.7-10,23.2-10,24.8c0,0.2,0,0.3,0.2,0.3c0.4,0,1.4-0.4,3.7-2.2c4.9-3.7,13.6-12.5,18.3-19.1c0.1-0.2,0.4-0.2,0.5-0.1
				c0.2,0.1,0.2,0.4,0.1,0.5c-4.8,6.7-13.6,15.5-18.5,19.3c-2.7,2.1-3.7,2.3-4.2,2.3c-0.8,0-3.2-1.3-3.2-4.7c0-1.8,1.7-7.3,4.3-13.7
				c1.6-3.9,3.2-7.7,4.9-11c-3.2,3.6-7,8.3-10.4,12.7c-9.7,12.1-11.2,13.8-12.5,13.6c-2.8-0.5-4.3-4.9-4.3-9.2
				C451.6,64,465.9,37.4,475.2,37.4L475.2,37.4z"/>
		</g>
	</g>
</g>
</svg>
