<?xml version="1.0" encoding="utf-8"?>
<!-- Generator: Adobe Illustrator 21.0.0, SVG Export Plug-In . SVG Version: 6.00 Build 0)  -->
<svg version="1.1" id="Layer_1" xmlns="http://www.w3.org/2000/svg" xmlns:xlink="http://www.w3.org/1999/xlink" x="0px" y="0px"
	 viewBox="0 0 81.4 52" style="enable-background:new 0 0 81.4 52;" xml:space="preserve">
<style type="text/css">
	.st0{enable-background:new    ;}
	.st1{fill:#36354E;}
</style>
<g class="st0">
	<path class="st1" d="M22.4,4.4c1.1,0,1.6,0.9,1.6,1.4c0,1.2-1.7,2.8-3.9,4.9c-1.5,7-3.7,23.7-12.2,23.7c-3.2,0-4.7-2.7-5-6
		c-0.9,2-2.2,5.2-2.2,7.4c0,0.2-0.3,0.2-0.3,0c0-1.6,0.8-4.6,2.4-8c0-0.1,0-0.2,0-0.3c0-4.5,2.1-9.5,5.2-9.5c0.3,0,0.3,0.3,0.1,0.3
		c-3.1,0-4.9,5.1-5,8.9c0.5-1,1.1-2,1.7-3c2.9-4.6,8.9-8.4,12.6-11.5C18.3,9.1,19.5,4.4,22.4,4.4L22.4,4.4z M5.2,24.1
		c-0.8,1.2-1.4,2.4-2,3.6c0.1,2.9,1.2,6.1,4.2,6.1c7.3,0,8.5-13.7,10.1-20.8C13.7,16,8,19.7,5.2,24.1z M22.8,4.9
		c-1.2,0-1.8,1.5-2.6,5.2c2-1.8,3.5-3.4,3.5-4.4C23.7,5.3,23.3,4.9,22.8,4.9L22.8,4.9z"/>
	<path class="st1" d="M33.2,25.7c0.1,0,0.1,0.1,0,0.3c-0.8,1.2-2,1.8-2.8,1.8c-1.1,0-1.9-1-2.4-2.5c-1.2,2.3-3.1,5.2-4.8,5.2
		c-1.3,0-2-1.5-2-3c0-4.1,4.1-9.5,5.1-9.5c0.3,0,0.6,0.2,0.6,0.6c0,0.5-4,6.6-4,10.1c0,1.1,0.2,1.5,0.6,1.5c1.2,0,3.2-3.2,4.4-5.3
		C26.7,20.6,27.7,13,30.7,13c0.9,0,1.1,1.3,1.1,1.8c0,1.6-1,4.9-2.6,8.2L29,23.6c0,0.1-0.1,0.2-0.1,0.3c0.2,2.1,0.7,3.7,1.6,3.7
		c0.8,0,1.8-0.8,2.4-1.7C33,25.7,33.1,25.7,33.2,25.7L33.2,25.7z M28.8,23.2l0.2-0.5c1.5-3.2,2.5-6.3,2.5-7.8c0-0.5-0.1-0.8-0.5-1.1
		C29.3,15.4,28.6,19.8,28.8,23.2z"/>
	<path class="st1" d="M36.7,18.7c0.4,0,0.6,0.2,0.6,0.5c0,0.2-2.7,6.8-2.7,6.9c1.1-1.1,3.6-3.2,5.2-3.2c0.7,0,1.1,0.4,1.1,1.5
		c0,1.4-0.9,3.3-2.2,4.9c0.5,0.6,1,1,1.7,1c1.1,0,2.9-1.9,4.4-4.1c0.1-0.2,0.4,0,0.3,0.2c-1.6,2.3-3.5,4.2-4.7,4.2
		c-0.8,0-1.4-0.4-1.9-1c-0.9,1.1-3.1,3.3-4.1,3.3c-0.5,0-0.8-0.4-0.8-0.8c0-0.7,2.1-2.9,3.9-3.7c0-0.1,0.1-0.2,0.1-0.3
		c0.9-2.1,1.4-4,1.4-4.6c-1.5,0.3-3.7,2.3-4.8,3.5c-1.9,4.6-4.8,11.6-7.3,15.9c-0.7,1.2-2.1,3.7-3.4,3.7c-0.6,0-1-0.6-1-1.6
		c0-3.2,5.2-14.3,9.1-17.2c1.5-3.7,2.9-7,3.9-8.5C36,18.8,36.4,18.7,36.7,18.7L36.7,18.7z M31.6,28.4C27.9,31.6,23,41.9,23,44.9
		c0,0.4,0.1,1.2,0.5,1.2c0.7,0,2-2.9,2.6-4.2C27.7,38.3,29.8,33,31.6,28.4L31.6,28.4z M37.4,28.7C35.7,29.6,34,31.6,34,32
		c0,0.3,0.2,0.5,0.5,0.5C35.7,32.5,36.9,29.8,37.4,28.7L37.4,28.7z"/>
	<path class="st1" d="M58.8,0.3c1.3,0,1.9,1.2,1.9,2.6c0,3.9-7.7,10.7-10.6,13.2c-1.2,3.4-2.4,6.9-3.4,10c1.7-2.7,6.7-9.5,9.6-9.9h0
		c0.3,0,0.7,0.1,0.7,0.9c0,3-5.5,10.4-5.5,13.6c0,0.8,0.3,1.1,0.7,1.1c1.8,0,6.3-6.3,6.9-7.2c0-0.1,0.1-0.1,0.1-0.1
		c0.1,0,0.2,0.1,0.1,0.2c-0.6,1-5.1,7.3-7.2,7.3c-1.2,0-2-1.3-2-2.2c0-1.4,1.6-6.4,5.5-13.1c-2.6,1.3-7.1,6.7-9.3,10.9
		c-0.1,0.2-0.1,0.4-0.2,0.6c-0.1,0.3-0.5,0.6-0.9,0.6c-0.4,0-0.8-0.2-0.9-0.7l0,0l0,0C45.8,21.7,52.2,0.3,58.8,0.3L58.8,0.3z
		 M59.1,0.8c-3.4,0-7.4,11-8.8,14.7c2.8-2.4,10.1-9,10.1-12.6C60.4,1.9,59.9,0.8,59.1,0.8L59.1,0.8z"/>
	<path class="st1" d="M61.7,17.8c0.4,0,0.7,0.3,0.7,0.8c0,1.1-4.1,9.5-4.1,12.2c0,0.7,0.3,1,0.7,1c1.6,0,5.6-4.9,6.8-6.8
		c0.1-0.2,0.4,0,0.3,0.2c-1.2,1.8-5.2,6.9-7.3,6.9c-1.3,0-1.9-1.2-1.9-2.4c0-1.7,1.5-7.2,4-11.4C61,18,61.3,17.8,61.7,17.8
		L61.7,17.8z M65,11.9c0,0.8-0.9,1.2-1.3,1.2c-0.3,0-0.7-0.3-0.7-0.7c0-0.6,1.1-1.1,1.5-1.1C64.8,11.3,65,11.5,65,11.9z"/>
	<path class="st1" d="M73.1,15.1c1,0,1.2,1.4,1.2,2.4c0,2.2-0.8,5.1-2.3,6.2c-0.2,0.1-0.4-0.1-0.2-0.3c1.5-1.1,2.2-4,2.2-6
		c0-0.8-0.1-1.7-0.5-1.8c-2.6,0-8.4,13-8.4,16.8c0,0.7,0.2,0.8,0.2,0.9c0.5,0,2.2-2.1,4.8-5.3c1.7-2.1,3.6-4.5,5-6
		c0.4-0.8,0.8-1.4,1.2-2l0,0c0.3-0.3,0.7-0.6,1-0.6c0.4,0,0.6,0.2,0.6,0.6c0,0.1,0,0.3-0.1,0.5c-0.1,0.4-0.8,2-1.7,4
		c-1.5,3.5-4,9.4-4,10.1c0,0.1,0,0.1,0.1,0.1c0.2,0,0.6-0.2,1.5-0.9c2-1.5,5.5-5.1,7.4-7.7c0.1-0.1,0.2-0.1,0.2,0
		c0.1,0.1,0.1,0.2,0,0.2c-1.9,2.7-5.5,6.3-7.5,7.8c-1.1,0.8-1.5,1-1.7,1c-0.3,0-1.3-0.5-1.3-1.9c0-0.7,0.7-3,1.7-5.6
		c0.6-1.6,1.3-3.1,2-4.5c-1.3,1.5-2.8,3.4-4.2,5.1c-3.9,4.9-4.5,5.6-5.1,5.5c-1.1-0.2-1.7-2-1.7-3.7C63.5,25.9,69.3,15.1,73.1,15.1
		L73.1,15.1z"/>
</g>
</svg>
