<?xml version="1.0" encoding="utf-8"?>
<!-- Generator: Adobe Illustrator 21.0.0, SVG Export Plug-In . SVG Version: 6.00 Build 0)  -->
<svg version="1.1" id="Layer_1" xmlns="http://www.w3.org/2000/svg" xmlns:xlink="http://www.w3.org/1999/xlink" x="0px" y="0px"
	 viewBox="0 0 674.9 128.2" style="enable-background:new 0 0 674.9 128.2;" xml:space="preserve">
<style type="text/css">
	.st0{enable-background:new    ;}
	.st1{fill:#36354E;}
</style>
<g class="st0">
	<path class="st1" d="M33.3,13.8c3.3,0,4.6,1.6,4.6,3.7c0,9.6-26.3,35.4-26.3,51.8c0,5,0.7,6.6,1.8,6.6C16.6,76,30,58.3,32,55.7
		c3-7.4,6.9-14.1,9.1-16.8c0.5-0.7,1.3-1,2-1c0.9,0,1.6,0.6,1.6,1.5c0,0.3-0.1,0.7-0.2,1c-2.9,6-5.7,12.1-8.4,18.8
		c-3.6,9.2-5.5,16-5.5,20.2c0,1.8,0.4,4.5,2.1,4.5C36,83.8,44,74,52.1,59.9c5.3-9.3,13.3-24.7,13.5-35.4c0-0.1,0-0.2,0-0.2
		c0-4.6-3-8.3-4.6-8.3c-0.5,0.1-0.9,0.4-1.4,1.1c0,0.1-0.1,0.1-0.2,0.1c-0.3,0-0.6-0.5-0.6-1c0-0.1,0-0.2,0.1-0.3
		c0.6-0.8,1.3-1.2,2-1.2c2.1,0,5.8,4.7,5.8,9.6c0,9.6-9.2,27.6-14,35.9c-2.8,4.9-14.5,24.3-20.1,24.3c-3.7,0-5.3-6.3-5.3-10.3
		c0-4.6,1.5-10.4,3.6-16c-7.1,9.2-14.5,18.5-17.9,18.5c-3.2,0-5.5-4.9-5.5-10.8c0-16.5,26.6-43.1,26.6-50.4c0-0.7-0.3-1-1-1
		c-4,0-14.8,7.5-19.3,17.9c-0.2,0.5-0.9,0.2-0.7-0.3C17.7,21.7,28.8,13.8,33.3,13.8L33.3,13.8z"/>
	<path class="st1" d="M81.4,48.2c0,3.2-3.3,9.1-8.9,11.5c-1.9,4.8-3.6,10.6-3.6,14.4c0,2.1,0.5,5.1,2.7,5.1c7,0,17.8-16.4,21.5-21.2
		c0.3-0.4,0.9,0.1,0.6,0.5C89.3,64.2,79,80.1,71.6,80.1c-2.5,0-6.9-2.2-6.9-8.5c0-12,9.8-25.7,14.8-25.7
		C80.2,45.9,81.4,46.2,81.4,48.2z M73.4,57.6c-0.1,0.3-0.3,0.7-0.4,1c4.3-2.1,7.2-7,7.2-9.9c0-0.9-0.4-1.2-0.6-1.2
		C78.7,47.6,76.3,50.7,73.4,57.6z"/>
	<path class="st1" d="M115.7,14.9c1.1,0,2.1,0.5,2.7,1.3c2.8,3.7-6.6,19.2-9.8,23.7c-2.6,3.7-6.6,8.8-11.5,13.2
		c-2.6,6.8-8,21.9-8,29.2c0,1.2,0.2,4,1.9,4c4.5,0,16.6-18,19.1-21.7c0.3-0.4,0.9,0,0.6,0.4C107.6,69.6,96,87.2,91,87.2
		c-3.1,0-5.9-2.2-5.9-5.8C85.1,67.4,102.7,14.9,115.7,14.9L115.7,14.9z M116.4,16.5c-2.8,0-11.3,15.8-18.7,34.9
		c4.3-4.1,7.9-8.6,10.3-12c2.7-3.8,12-18.8,9.6-22.4C117.4,16.7,117,16.5,116.4,16.5L116.4,16.5z"/>
	<path class="st1" d="M124.8,43.9c2.2,0,2.8,1.6,2.8,3.8c0,2.5-0.8,6.1-1.5,7.3c-0.2,0.5-0.9,0.1-0.7-0.4c0.6-1,1.4-4.4,1.4-6.9
		c0-2.2-0.6-2.5-0.9-2.5c-3.4,0-14,25-14,33.3c0,2.6,0.7,5.5,3.4,5.5c5.5,0,21-18.5,22.6-20.9c0.3-0.4,0.9,0,0.7,0.4
		c-3.1,4.8-17.5,21.3-23.3,21.3c-3.7,0-7.4-3.2-7.4-9.2C107.8,65.2,118,43.9,124.8,43.9L124.8,43.9z"/>
	<path class="st1" d="M165,63.5c0.2,0.1,0.3,0.4,0.1,0.6c-1.9,3-5,4.5-6.8,4.5c-2.7,0-4.6-2.5-5.8-6.2c-3,5.6-7.6,12.9-11.8,12.9
		c-3.1,0-5.1-3.6-5.1-7.5c0-10.1,10.2-23.5,12.7-23.5c0.8,0,1.4,0.6,1.4,1.5c0,1.3-10,16.3-10,24.9c0,2.7,0.6,3.7,1.5,3.7
		c3.1,0,7.9-7.9,10.8-13.2c-2.9-10.7-0.5-29.3,6.9-29.3c2.3,0,2.7,3.2,2.7,4.5c0,4-2.6,12-6.4,20.1l-0.6,1.3
		c-0.1,0.2-0.2,0.5-0.4,0.7c0.4,5.2,1.8,9.1,4,9.1c1.9,0,4.5-1.9,6-4.2C164.5,63.5,164.8,63.4,165,63.5L165,63.5z M154.2,57.3
		l0.6-1.3c3.7-7.9,6.1-15.5,6.1-19.3c0-1.1-0.3-2-1.2-2.8C155.6,37.9,153.8,48.9,154.2,57.3z"/>
	<path class="st1" d="M207.8,36.1c1.5,0,2,1.4,1.8,2.9c-0.7,5.4-14,29-14,33.8c0,2.2,1.6,3.2,3.1,3.2c6.5,0,14.3-12,15-12.9
		c0.3-0.4,0.9,0.1,0.6,0.5c-0.7,0.9-8.7,13.2-15.6,13.2c-1.7,0-5.9-1.3-5.9-7.1c0-7,5.5-16.9,9.5-24.1c1.7-3.1,3.2-5.8,3.8-7.4
		c-4.1,2.9-12.9,12.7-18,18.6c-5,5.8-5.5,7-7.2,10.6c-0.1,0.1-0.4,0.3-1.2,0.3c-1.3,0-2.4-0.5-2.4-2c0-2,1.9-5.8,3.8-9.4
		c0.3-0.6,3.3-6.4,2.6-6.4c-2.5,0-8,5.8-9.6,7.7c-3.3,3.8-6.1,7.8-7.3,9.7c-1.3,2.9-1.4,2.9-1.5,3c-0.3,0.1-0.5,0.2-0.9,0.2
		c-1.2,0-2.7-0.8-2.7-1.7v-0.1c0.3-1.9,3.5-10,6.1-16.4c1.2-3,2.3-5.7,2.7-6.9c0.4-1.2,1.7-1.9,2.6-1.9c1,0,1.6,0.6,1.7,1.7
		c0,0.1,0,0.1,0,0.2c0,2-1.6,6.7-4.7,14.2c-0.6,1.3-1.1,2.6-1.6,3.8c1.3-1.9,3-4.1,4.9-6.2c2.9-3.4,8.2-8.6,10.9-8.6
		c1.6,0,2.6,0.9,2.6,2.3c0,1.4-2.6,8.1-3.8,10.9c1-1.4,2.3-3,4.3-5.4C188.7,54.8,204.9,36.1,207.8,36.1L207.8,36.1z"/>
	<path class="st1" d="M227.6,48.2c0,3.2-3.3,9.1-8.9,11.5c-1.9,4.8-3.6,10.6-3.6,14.4c0,2.1,0.5,5.1,2.7,5.1
		c7,0,17.8-16.4,21.5-21.2c0.3-0.4,0.9,0.1,0.6,0.5c-4.4,5.6-14.7,21.5-22.1,21.5c-2.5,0-6.9-2.2-6.9-8.5c0-12,9.8-25.7,14.8-25.7
		C226.4,45.9,227.6,46.2,227.6,48.2z M219.6,57.6c-0.1,0.3-0.3,0.7-0.4,1c4.3-2.1,7.2-7,7.2-9.9c0-0.9-0.4-1.2-0.6-1.2
		C225,47.6,222.6,50.7,219.6,57.6z"/>
	<path class="st1" d="M289.1,13.7c0.7,0,1.5,0.6,1.5,2.4c0,2.4-0.4,5-1.2,7.8c2.8,0.5,5.4,0.8,7.7,0.8c2.3,0,4.1-0.4,5.5-1.1
		c0.5-0.2,0.8,0.5,0.4,0.7c-1.5,0.8-3.5,1.2-5.9,1.2c-2.4,0-5.1-0.4-7.9-0.8c-4,14.3-24.5,50.3-24.5,62.3c0,1.6,0.6,1.6,0.8,1.6
		c1.1,0,3.1-1.2,5.2-3.3c3.6-3.6,12.7-15.1,18.1-22.8c0.1-0.2,0.4-0.2,0.5-0.1c0.2,0.1,0.2,0.4,0.1,0.5
		c-4.5,6.4-13.8,18.6-18.2,22.9c-1.5,1.4-4.5,3.8-6.3,3.8c-2.2,0-3.9-2.8-3.9-6.4c0-11.4,15.1-36.3,23.6-59.4c-3.4-0.5-6.8-1-10.3-1
		c-11.2,0.1-15.1,3.4-17.3,6.7c-0.3,0.4-0.9,0-0.6-0.4c4-5.8,10.8-7,17.9-7c3.6,0,7.1,0.4,10.6,1c0.9-2.6,1.9-5.3,2.7-8.1
		C287.8,14.2,288.5,13.7,289.1,13.7L289.1,13.7z"/>
	<path class="st1" d="M315.5,63.5c0.2,0.1,0.3,0.4,0.1,0.6c-1.9,3-5,4.5-6.8,4.5c-2.7,0-4.6-2.5-5.8-6.2c-3,5.6-7.6,12.9-11.8,12.9
		c-3.1,0-5.1-3.6-5.1-7.5c0-10.1,10.2-23.5,12.7-23.5c0.8,0,1.4,0.6,1.4,1.5c0,1.3-10,16.3-10,24.9c0,2.7,0.6,3.7,1.5,3.7
		c3.1,0,7.9-7.9,10.8-13.2c-2.9-10.7-0.5-29.3,6.9-29.3c2.3,0,2.7,3.2,2.7,4.5c0,4-2.6,12-6.4,20.1l-0.6,1.3
		c-0.1,0.2-0.2,0.5-0.4,0.7c0.4,5.2,1.8,9.1,4,9.1c1.9,0,4.5-1.9,6-4.2C315.1,63.5,315.4,63.4,315.5,63.5L315.5,63.5z M304.8,57.3
		l0.6-1.3c3.7-7.9,6.1-15.5,6.1-19.3c0-1.1-0.3-2-1.2-2.8C306.1,37.9,304.4,48.9,304.8,57.3z"/>
	<path class="st1" d="M387.2,12.7c5.4,0,6.9,3.4,6.9,7.5c0,2.2-0.7,4.5-2.1,6.3c-0.1,0.1-0.2,0.2-0.3,0.2c-0.2,0-0.4-0.2-0.4-0.4
		c0-0.1,0-0.2,0.1-0.2c1.3-1.6,2-3.7,2-5.8c0-2.8-1.3-6-4.3-6c-9.7,0-34.3,39.6-34.3,59.6c0,5.6,2,9.3,5.5,9.3
		c5.7,0,12.7-10.2,13.4-14.2c0.1-0.5,1,0.5,1,1.1c-0.7,3.8-7.6,13.9-14.7,13.9c-4.8,0-10-3.7-10-13.4
		C349.9,51.7,370,12.7,387.2,12.7L387.2,12.7z"/>
	<path class="st1" d="M418.8,0.7c3.3,0,4.7,3.1,4.7,6.4c0,9.6-18.9,26.4-26.2,32.6c-3,8.3-5.9,16.9-8.4,24.6
		c4.1-6.7,16.4-23.5,23.6-24.5h0c0.6,0,1.7,0.3,1.7,2.1c0,7.5-13.6,25.6-13.6,33.6c0,1.9,0.6,2.7,1.6,2.7c4.4,0,15.6-15.5,17-17.6
		c0.1-0.1,0.2-0.2,0.3-0.2c0.3,0,0.5,0.3,0.3,0.6c-1.5,2.3-12.5,18.1-17.8,18.1c-3,0-5-3.2-5-5.5c0-3.4,4-15.7,13.6-32.3
		c-6.5,3.2-17.4,16.5-23,26.9c-0.2,0.5-0.3,0.9-0.5,1.4c-0.3,0.8-1.2,1.4-2.2,1.4c-1,0-2.1-0.5-2.3-1.8l0-0.1l0-0.1
		C386.6,53.5,402.5,0.7,418.8,0.7L418.8,0.7z M419.5,1.9c-8.4,0-18.3,27.1-21.7,36.4c6.9-5.9,24.9-22.1,24.9-31.1
		C422.7,4.8,421.5,1.9,419.5,1.9L419.5,1.9z"/>
	<path class="st1" d="M436.6,37.4c2.5,0,3,3.5,3,6c0,5.4-2,12.6-5.8,15.3c-0.4,0.3-0.9-0.3-0.5-0.6c3.7-2.6,5.5-9.9,5.5-14.7
		c0-2-0.4-4.1-1.2-4.4c-6.5,0.1-20.8,32.1-20.8,41.5c0,1.6,0.4,2.1,0.6,2.1c1.2,0,5.4-5.2,11.7-13.1c4.2-5.3,8.9-11.1,12.4-14.8
		c1-1.9,2-3.6,2.9-5l0,0c0.6-0.8,1.6-1.4,2.5-1.4c0.9,0,1.5,0.6,1.5,1.5c0,0.3-0.1,0.7-0.2,1.2c-0.4,1-2,5-4.2,9.9
		c-3.7,8.7-10,23.2-10,24.8c0,0.2,0,0.3,0.2,0.3c0.4,0,1.4-0.4,3.7-2.2c4.9-3.7,13.6-12.5,18.3-19.1c0.1-0.2,0.4-0.2,0.5-0.1
		c0.2,0.1,0.2,0.4,0.1,0.5c-4.8,6.7-13.6,15.5-18.5,19.3c-2.7,2.1-3.7,2.3-4.2,2.3c-0.8,0-3.2-1.3-3.2-4.7c0-1.8,1.7-7.3,4.3-13.7
		c1.6-3.9,3.2-7.7,4.9-11c-3.2,3.6-7,8.3-10.4,12.7c-9.7,12.1-11.2,13.8-12.5,13.6c-2.8-0.5-4.3-4.9-4.3-9.2
		C413,64,427.3,37.4,436.6,37.4L436.6,37.4z"/>
	<path class="st1" d="M474.4,26.5c1.4,0,2.4,0.9,2.4,2.8c0,4.6-5.4,14.7-8.4,19.7c0.6,2.8,1.9,5,4.3,6.6c0.2-0.1,0.4-0.1,0.6-0.1
		c0.8,0,1.5,0.6,1.5,1.5c0,0.4-0.1,0.8-0.4,1.2c-2.7,3.6-12.8,18.8-12.8,27.3c0,2.7,0.8,3.8,1.9,3.8c0.5,0,1.1-0.3,1.7-0.7
		c4.6-3.7,17.8-19.2,21.2-23.9c0.1-0.1,0.2-0.2,0.3-0.2c0.2,0,0.4,0.2,0.4,0.4c0,0.1,0,0.2-0.1,0.2c-3.4,4.8-16.7,20.3-21.3,24.1
		c-0.5,0.4-1.3,1-2.2,1c-2.5,0-5.9-2.2-5.9-6.6c0-7.5,8.8-23.4,13.6-27.1c-1.9-0.7-3.6-1.9-5-3.7c-3.1,4.6-5.7,7.6-9,12.3
		c-0.1,0.1-0.2,0.2-0.3,0.2c-0.2,0-0.4-0.2-0.4-0.4c0-0.1,0-0.2,0.1-0.2c3.3-4.8,6-7.8,9.1-12.5c-1.3-2.1-2-4.7-2-7.7
		C463.6,35,469.9,26.5,474.4,26.5L474.4,26.5z M475.1,28.3c-2.9,0-7,10.9-7,17.9c0,0.5,0,1.1,0.1,1.5c2.5-4.3,7.8-14.1,7.8-18.5
		C476,28.7,475.6,28.3,475.1,28.3L475.1,28.3z"/>
	<path class="st1" d="M530.1,36.1c1.5,0,2,1.4,1.8,2.9c-0.7,5.4-14,29-14,33.8c0,2.2,1.6,3.2,3.1,3.2c6.5,0,14.3-12,15-12.9
		c0.3-0.4,0.9,0.1,0.6,0.5C536,64.5,528,76.8,521,76.8c-1.7,0-5.9-1.3-5.9-7.1c0-7,5.5-16.9,9.5-24.1c1.7-3.1,3.2-5.8,3.8-7.4
		c-4.1,2.9-12.9,12.7-18,18.6c-5,5.8-5.5,7-7.2,10.6c-0.1,0.1-0.4,0.3-1.2,0.3c-1.3,0-2.4-0.5-2.4-2c0-2,1.9-5.8,3.8-9.4
		c0.3-0.6,3.3-6.4,2.6-6.4c-2.5,0-8,5.8-9.6,7.7c-3.3,3.8-6.1,7.8-7.3,9.7c-1.3,2.9-1.4,2.9-1.5,3c-0.3,0.1-0.5,0.2-0.9,0.2
		c-1.2,0-2.7-0.8-2.7-1.7v-0.1c0.3-1.9,3.5-10,6.1-16.4c1.2-3,2.3-5.7,2.7-6.9c0.4-1.2,1.7-1.9,2.6-1.9c1,0,1.6,0.6,1.7,1.7
		c0,0.1,0,0.1,0,0.2c0,2-1.6,6.7-4.7,14.2c-0.6,1.3-1.1,2.6-1.6,3.8c1.3-1.9,3-4.1,4.9-6.2c2.9-3.4,8.2-8.6,10.9-8.6
		c1.6,0,2.6,0.9,2.6,2.3c0,1.4-2.6,8.1-3.8,10.9c1-1.4,2.3-3,4.3-5.4C511,54.8,527.2,36.1,530.1,36.1L530.1,36.1z"/>
	<path class="st1" d="M607.9,12.7c5.4,0,6.9,3.4,6.9,7.5c0,2.2-0.7,4.5-2.1,6.3c-0.1,0.1-0.2,0.2-0.3,0.2c-0.2,0-0.4-0.2-0.4-0.4
		c0-0.1,0-0.2,0.1-0.2c1.3-1.6,2-3.7,2-5.8c0-2.8-1.3-6-4.3-6c-9.7,0-34.3,39.6-34.3,59.6c0,5.6,2,9.3,5.5,9.3
		c5.7,0,12.7-10.2,13.4-14.2c0.1-0.5,1,0.5,1,1.1c-0.7,3.8-7.6,13.9-14.7,13.9c-4.8,0-10-3.7-10-13.4
		C570.5,51.7,590.6,12.7,607.9,12.7L607.9,12.7z"/>
	<path class="st1" d="M614.6,43.8c0.9,0,1.6,0.7,1.6,1.9c0,2.7-10.1,23.3-10.1,30c0,1.7,0.6,2.5,1.7,2.5c3.9,0,13.8-12.2,16.8-16.7
		c0.3-0.4,0.9,0,0.7,0.4c-3.1,4.5-12.8,17.1-18,17.1c-3.1,0-4.6-2.9-4.6-5.9c0-4.2,3.7-17.7,9.8-28C613,44.3,613.8,43.8,614.6,43.8
		L614.6,43.8z M621.6,27.9c0.8,0,1.2,0.5,1.2,1.3c0,2-2.3,3-3.2,3c-0.8,0-1.7-0.8-1.7-1.6C617.9,29,620.7,27.9,621.6,27.9
		L621.6,27.9z"/>
	<path class="st1" d="M644.6,13.7c0.7,0,1.5,0.6,1.5,2.4c0,2.4-0.4,5-1.2,7.8c2.8,0.5,5.4,0.8,7.7,0.8c2.3,0,4.1-0.4,5.5-1.1
		c0.5-0.2,0.8,0.5,0.4,0.7c-1.5,0.8-3.5,1.2-5.9,1.2c-2.4,0-5.1-0.4-7.9-0.8c-4,14.3-24.5,50.3-24.5,62.3c0,1.6,0.6,1.6,0.8,1.6
		c1.1,0,3.1-1.2,5.2-3.3c3.6-3.6,12.7-15.1,18.1-22.8c0.1-0.2,0.4-0.2,0.5-0.1c0.2,0.1,0.2,0.4,0.1,0.5
		c-4.5,6.4-13.8,18.6-18.2,22.9c-1.5,1.4-4.5,3.8-6.3,3.8c-2.2,0-3.9-2.8-3.9-6.4c0-11.4,15.1-36.3,23.6-59.4c-3.4-0.5-6.8-1-10.3-1
		c-11.2,0.1-15.1,3.4-17.3,6.7c-0.3,0.4-0.9,0-0.6-0.4c4-5.8,10.8-7,17.9-7c3.6,0,7.1,0.4,10.6,1c0.9-2.6,1.9-5.3,2.7-8.1
		C643.3,14.2,643.9,13.7,644.6,13.7L644.6,13.7z"/>
	<path class="st1" d="M669.7,40.3c2.1-2,4.5-1.1,2.4,2.7c-8,14.3-10.4,24.7-13.7,36.4c5.1-3.4,10.3-7.4,15.7-15
		c0.3-0.4,0.9,0,0.6,0.5c-5.7,8.1-11.3,12.1-16.7,15.7c-1.8,6.6-3.9,13.5-6.2,19.7c-2.1,5.8-6.6,17.5-12.8,17.5
		c-2,0-3.1-1.8-3.1-4.9c0-5.4,2.3-14.3,7.4-21c2.6-3.4,5.6-5.9,8.7-8.1c1.2-5.2,3.1-15.5,7.3-26.4c-8.6,8.7-13.2,14-14.8,14
		c-1.6,0-2.9-2.6-2.9-5.7c0-5.3,7.5-16.9,10.5-21.1c0.4-0.5,1.2-0.7,1.9-0.7c1.3,0,2.2,0.6,2.2,1.5c0,0.3-0.1,0.6-0.3,1
		c-2.5,4.2-11,18.6-10.8,23.7c3.1-1.8,7.6-7.2,15-14.5C663,48.6,666.1,43.7,669.7,40.3L669.7,40.3z M651.8,84.8
		c-2.8,2.1-5.5,4.4-7.8,7.5c-4.7,6.2-7.2,14.8-7.2,20.5c0,2.7,0.8,4.2,2.3,4.2c3.4,0,5.5-4,10.1-21.8
		C650.2,91.5,651.1,88,651.8,84.8L651.8,84.8z"/>
</g>
</svg>
